<?xml version="1.0" encoding="UTF-8"?>
<svg version="1.1" xmlns="http://www.w3.org/2000/svg" width="716" height="716">
<path d="M0 0 C236.28 0 472.56 0 716 0 C716 236.28 716 472.56 716 716 C479.72 716 243.44 716 0 716 C0 479.72 0 243.44 0 0 Z " fill="#FBFBFB" transform="translate(0,0)"/>
<path d="M0 0 C2.75056277 -0.00161835 5.50111895 -0.00620983 8.25167847 -0.01062012 C14.89470235 -0.0194336 21.53768061 -0.01762863 28.18070616 -0.01179484 C33.58670047 -0.00724703 38.99268214 -0.00667878 44.39867783 -0.00884247 C45.5601591 -0.00930217 45.5601591 -0.00930217 46.74510463 -0.00977115 C48.31891753 -0.01041071 49.89273042 -0.01105914 51.4665433 -0.01171634 C66.16411013 -0.01739585 80.86165186 -0.01089891 95.55921458 -0.0001156 C108.12868163 0.00882129 120.69811173 0.00726208 133.26757812 -0.00195312 C147.92167958 -0.01269188 162.57575916 -0.01685047 177.229864 -0.0107286 C178.79673504 -0.0100916 180.36360609 -0.00946286 181.93047714 -0.00884247 C183.08639338 -0.00837964 183.08639338 -0.00837964 184.26566146 -0.00790747 C189.65661668 -0.00619157 195.04755785 -0.00907148 200.43851089 -0.01380157 C207.02032285 -0.01945054 213.60208721 -0.0178104 220.18389381 -0.00724009 C223.53217897 -0.00203731 226.88032072 -0.00093687 230.22861481 -0.00653839 C268.70489794 -0.06493204 268.70489794 -0.06493204 284.03076172 5.25878906 C285.06330078 5.608125 286.09583984 5.95746094 287.15966797 6.31738281 C309.60426109 14.39955625 324.36574121 29.23684865 335.03076172 50.25878906 C343.32297161 69.46825753 343.33092299 89.24871328 343.32128906 109.79931641 C343.32728278 112.3619201 343.33409025 114.92452201 343.34164429 117.48712158 C343.3574075 123.69582624 343.36374913 129.90447506 343.36486904 136.11319785 C343.36582483 141.17031547 343.36996135 146.22742074 343.37627029 151.28453445 C343.39385684 165.67838443 343.40311362 180.07220477 343.40160935 194.46606557 C343.40152943 195.23958327 343.40144952 196.01310097 343.40136719 196.81005859 C343.40128543 197.58454061 343.40120366 198.35902263 343.40111943 199.15697379 C343.40030801 211.6842442 343.419416 224.21139395 343.44764392 236.73862951 C343.47651787 249.65640536 343.49017619 262.57412268 343.48845637 275.49193156 C343.48779728 282.72210395 343.49307493 289.95214996 343.51481247 297.18229294 C343.53516178 303.99345239 343.53420403 310.8043433 343.51977921 317.61551666 C343.51771075 320.09482084 343.52227245 322.57414232 343.53450012 325.05341721 C343.63649604 347.19406766 342.71438763 369.4144225 332.03076172 389.25878906 C331.54607422 390.1959375 331.06138672 391.13308594 330.56201172 392.09863281 C326.9419907 398.62472625 322.16078077 403.88274778 317.03076172 409.25878906 C316.50095703 409.87496094 315.97115234 410.49113281 315.42529297 411.12597656 C302.45864188 425.59262585 282.5185722 430.82736844 264.03076172 433.25878906 C263.37718496 433.34805627 262.72360821 433.43732347 262.05022609 433.52929574 C255.77510934 434.31449072 249.57494694 434.40164847 243.25662231 434.39250183 C242.09852582 434.39476739 240.94042932 434.39703294 239.74723899 434.39936715 C236.55479537 434.40457845 233.36238744 434.40535613 230.16994095 434.40417278 C226.71775668 434.40396778 223.26558065 434.40949716 219.81340027 434.41423035 C213.05644864 434.42251751 206.29950573 434.42528436 199.54254945 434.42584272 C194.04330721 434.42631904 188.54406784 434.42837956 183.04482651 434.43154335 C167.42305039 434.44034658 151.80128112 434.44496353 136.1795025 434.44421288 C134.91768245 434.44415294 134.91768245 434.44415294 133.63037109 434.4440918 C132.3669934 434.44403048 132.3669934 434.44403048 131.07809292 434.44396792 C117.45035137 434.4435621 103.82263753 434.45311636 90.19490398 434.46723016 C76.17220147 434.48163727 62.14951242 434.48849789 48.12680233 434.48763639 C40.26631746 434.48730579 32.40586161 434.48999196 24.54538345 434.50081444 C17.84800232 434.50997692 11.15066334 434.51204819 4.45327862 434.50530501 C1.04431598 434.5020678 -2.36450099 434.50299395 -5.77346611 434.51065826 C-43.8827589 434.59073152 -43.8827589 434.59073152 -59.21923828 429.69628906 C-60.04149902 429.44016846 -60.86375977 429.18404785 -61.7109375 428.92016602 C-74.2727586 424.76011406 -84.70104771 417.65867683 -93.96923828 408.25878906 C-94.66404297 407.57429688 -95.35884766 406.88980469 -96.07470703 406.18457031 C-118.78731113 382.41760936 -119.28493856 349.70520449 -119.22802734 318.88745117 C-119.23074364 316.39171751 -119.23430814 313.89598466 -119.23864746 311.4002533 C-119.24676171 305.37223671 -119.24565566 299.34428951 -119.23982218 293.31627577 C-119.23527425 288.41032007 -119.23470618 283.5043783 -119.23686981 278.5984211 C-119.23717628 277.89569994 -119.23748274 277.19297878 -119.2377985 276.46896305 C-119.23843805 275.04066335 -119.23908648 273.61236366 -119.23974368 272.18406398 C-119.24542345 258.84472657 -119.23892604 245.50541681 -119.22814295 232.16608394 C-119.21920763 220.76004149 -119.22076391 209.35403977 -119.22998047 197.94799805 C-119.24072155 184.64935261 -119.24487639 171.35073129 -119.23875594 158.05208212 C-119.23811895 156.62983517 -119.23749021 155.20758822 -119.23686981 153.78534126 C-119.23656126 153.08586662 -119.23625271 152.38639197 -119.23593481 151.66572113 C-119.23421949 146.7742569 -119.2370976 141.88280818 -119.24182892 136.99134636 C-119.24807528 130.38951594 -119.24352898 123.78774981 -119.23204041 117.18592262 C-119.22941634 114.77624513 -119.23011989 112.36656111 -119.23456573 109.95688629 C-119.28640389 78.98341894 -116.62444979 49.61709334 -93.96923828 26.25878906 C-93.36595703 25.57042969 -92.76267578 24.88207031 -92.14111328 24.17285156 C-68.9768025 -1.3078903 -31.45967911 -0.05271864 0 0 Z " fill="#2D2D2D" transform="translate(245.96923828125,140.7412109375)"/>
<path d="M0 0 C1.24458984 0.00064453 2.48917969 0.00128906 3.77148438 0.00195312 C5.72344727 0.02612305 5.72344727 0.02612305 7.71484375 0.05078125 C9.02001953 0.04755859 10.32519531 0.04433594 11.66992188 0.04101562 C21.38548048 0.09641798 21.38548048 0.09641798 23.65234375 2.36328125 C23.34447389 9.14574748 20.82165702 15.52665269 18.71484375 21.92578125 C18.31950439 23.14217285 17.92416504 24.35856445 17.5168457 25.61181641 C15.3680921 32.21302698 13.17724723 38.80006823 10.97265625 45.3828125 C10.75199997 46.04223343 10.53134369 46.70165436 10.30400085 47.38105774 C9.2426464 50.55091797 8.17686783 53.71909722 7.10375977 56.88500977 C4.73285707 63.92571014 2.56094884 70.99086606 0.57617188 78.15039062 C-0.74310774 82.73858294 -2.28344161 87.24391411 -3.8125 91.765625 C-5.79931613 97.67502606 -7.69367545 103.61429175 -9.59765625 109.55078125 C-10.17495483 111.35047363 -10.17495483 111.35047363 -10.76391602 113.18652344 C-11.55926603 115.66677043 -12.35442968 118.14707719 -13.14941406 120.62744141 C-14.70778191 125.48606912 -16.27103517 130.34311844 -17.83422852 135.20019531 C-20.95423332 144.89676612 -24.06670982 154.59570284 -27.16015625 164.30078125 C-27.44616699 165.19498779 -27.73217773 166.08919434 -28.02685547 167.01049805 C-29.24472951 170.83104606 -30.44503797 174.65267002 -31.5625 178.50390625 C-31.90410156 179.674375 -32.24570312 180.84484375 -32.59765625 182.05078125 C-32.8709375 183.02402344 -33.14421875 183.99726563 -33.42578125 185 C-34.45298427 187.63329587 -35.0917209 188.6766454 -37.34765625 190.36328125 C-40.22680664 190.7355957 -40.22680664 190.7355957 -43.6953125 190.7265625 C-44.93990234 190.72591797 -46.18449219 190.72527344 -47.46679688 190.72460938 C-48.76810547 190.70849609 -50.06941406 190.69238281 -51.41015625 190.67578125 C-52.71533203 190.67900391 -54.02050781 190.68222656 -55.36523438 190.68554688 C-65.08079298 190.63014452 -65.08079298 190.63014452 -67.34765625 188.36328125 C-67.00054849 182.70896823 -65.69890853 177.67957267 -63.90625 172.33203125 C-63.54117844 171.21420258 -63.54117844 171.21420258 -63.16873169 170.0737915 C-62.38109522 167.66796211 -61.58323226 165.2656654 -60.78515625 162.86328125 C-60.23692099 161.19454207 -59.68931804 159.52559503 -59.14233398 157.85644531 C-55.78422817 147.62708669 -52.36518933 137.41812674 -48.93530273 127.21264648 C-46.91062998 121.15461669 -45.03757858 115.07046593 -43.27514648 108.93164062 C-37.88087988 90.24873293 -31.56324762 71.81924105 -25.34667969 53.39697266 C-20.25011738 38.3255767 -20.25011738 38.3255767 -15.59765625 23.11328125 C-14.18311271 18.22403247 -12.76266751 13.33989569 -11.22265625 8.48828125 C-10.93132812 7.56273437 -10.64 6.6371875 -10.33984375 5.68359375 C-8.07855428 0.39538136 -5.59419009 -0.01456923 0 0 Z " fill="#FCFCFC" transform="translate(393.34765625,262.63671875)"/>
<path d="M0 0 C2.59689572 1.83766006 4.75328588 4.08122766 6.97753906 6.34643555 C7.65941284 7.02115402 8.34128662 7.6958725 9.04382324 8.39103699 C11.29703665 10.6273261 13.53155851 12.88131349 15.765625 15.13671875 C17.32469694 16.69496231 18.88458379 18.25239092 20.44525146 19.80903625 C23.71471074 23.07563487 26.97520332 26.35085801 30.22949219 29.63256836 C34.4030575 33.84020152 38.59634881 38.02749607 42.7963295 42.2087431 C46.0207842 45.42263225 49.23541986 48.64619775 52.44707489 51.87287331 C53.98965763 53.42064245 55.53508696 54.96557987 57.08338165 56.50763512 C59.24553666 58.66434434 61.39435328 60.8335134 63.54003906 63.0065918 C64.18314026 63.64316711 64.82624146 64.27974243 65.48883057 64.93560791 C67.84984094 67.34813695 69.73587506 69.4926576 71.29904175 72.49525452 C70.78483322 76.80221664 67.68100003 79.13328733 64.67529297 82.06933594 C63.99096695 82.76096329 63.30664093 83.45259064 62.60157776 84.16517639 C60.32968658 86.45331315 58.03673726 88.71897781 55.7421875 90.984375 C54.15987685 92.56564873 52.57860117 94.14795874 50.99832153 95.73126221 C47.68010534 99.04929879 44.35177672 102.35673785 41.015625 105.65673828 C36.73787806 109.88914706 32.48258892 114.14330329 28.2342205 118.40517807 C24.96991436 121.67616559 21.69571563 124.93709837 18.41824722 128.19489288 C16.84549724 129.75993894 15.27544194 131.32769771 13.70812607 132.89818573 C11.51547039 135.09158257 9.31028195 137.27153434 7.10107422 139.44824219 C6.45357712 140.10069412 5.80608002 140.75314606 5.13896179 141.42536926 C-0.55667303 146.98776677 -0.55667303 146.98776677 -5 147 C-7.12817383 145.64819336 -7.12817383 145.64819336 -9.20703125 143.58984375 C-9.95791016 142.84669922 -10.70878906 142.10355469 -11.48242188 141.33789062 C-12.25134766 140.54576172 -13.02027344 139.75363281 -13.8125 138.9375 C-14.60076172 138.17244141 -15.38902344 137.40738281 -16.20117188 136.61914062 C-17.31782227 135.49088867 -17.31782227 135.49088867 -18.45703125 134.33984375 C-19.13741455 133.65269287 -19.81779785 132.96554199 -20.51879883 132.25756836 C-22.50615715 129.22854208 -22.42626423 127.58178864 -22 124 C-20.10180664 121.38027954 -20.10180664 121.38027954 -17.41015625 118.72900391 C-16.67863846 117.99617188 -16.67863846 117.99617188 -15.93234253 117.24853516 C-14.32287719 115.64323753 -12.69324178 114.06021745 -11.0625 112.4765625 C-9.94018365 111.36544114 -8.81918804 110.25298428 -7.69946289 109.13925171 C-4.75333394 106.21599685 -1.78963349 103.31120885 1.17810059 100.40991211 C4.20508268 97.44438232 7.2150838 94.46172642 10.2265625 91.48046875 C16.13456247 85.63675642 22.06123674 79.81244519 28 74 C25.87761991 70.13842911 23.4928694 67.27097026 20.3449707 64.19726562 C19.40422195 63.2728064 18.46347321 62.34834717 17.49421692 61.39587402 C16.74398726 60.66530037 16.74398726 60.66530037 15.97860146 59.91996765 C14.40565465 58.38663022 12.84050397 56.8457241 11.27738953 55.30236816 C6.83483322 50.91769864 2.38258306 46.54306706 -2.08422852 42.18310547 C-4.8215748 39.51017113 -7.54661509 36.82520273 -10.26426125 34.13224792 C-11.3006736 33.11009299 -12.34173895 32.09263367 -13.38748741 31.08003235 C-14.84734681 29.66584261 -16.29066618 28.23463873 -17.7331543 26.80273438 C-18.55905563 25.99396851 -19.38495697 25.18520264 -20.23588562 24.35192871 C-22 22 -22 22 -22.35925293 19.33283997 C-21.87769684 16.20581388 -20.67208044 15.02637832 -18.45703125 12.79296875 C-17.71259766 12.04208984 -16.96816406 11.29121094 -16.20117188 10.51757812 C-15.41291016 9.74865234 -14.62464844 8.97972656 -13.8125 8.1875 C-13.04357422 7.39923828 -12.27464844 6.61097656 -11.48242188 5.79882812 C-10.73154297 5.05439453 -9.98066406 4.30996094 -9.20703125 3.54296875 C-8.5210083 2.86258545 -7.83498535 2.18220215 -7.12817383 1.48120117 C-4.33993452 -0.45940315 -3.36135085 -0.58666234 0 0 Z " fill="#FCFCFC" transform="translate(435,285)"/>
<path d="M0 0 C4.01443808 1.15409205 5.73112848 2.73021568 8.328125 5.95678711 C8.328125 6.61678711 8.328125 7.27678711 8.328125 7.95678711 C8.988125 7.95678711 9.648125 7.95678711 10.328125 7.95678711 C10.328125 8.61678711 10.328125 9.27678711 10.328125 9.95678711 C10.905625 10.18366211 11.483125 10.41053711 12.078125 10.64428711 C14.99163152 12.34383258 16.49124164 14.13585909 18.328125 16.95678711 C18.72436523 19.30241394 18.72436523 19.30241394 18.328125 21.95678711 C16.42993164 24.45625305 16.42993164 24.45625305 13.73828125 27.11425781 C13.25060272 27.60266647 12.76292419 28.09107513 12.26046753 28.59428406 C10.64875617 30.20251747 9.02007469 31.79232661 7.390625 33.38256836 C6.26852607 34.49533993 5.14752747 35.60922206 4.02758789 36.72416687 C1.07930489 39.65337418 -1.88368389 42.56725629 -4.84997559 45.47821045 C-7.87514639 48.45220164 -10.88618343 51.44042684 -13.8984375 54.42749023 C-19.80916746 60.28462241 -25.7355071 66.1256418 -31.671875 71.95678711 C-30.12908591 75.65334396 -27.89311684 77.9432258 -25.03857422 80.72192383 C-24.33587906 81.41060043 -24.33587906 81.41060043 -23.61898804 82.1131897 C-22.60507332 83.10615919 -21.58899937 84.09692771 -20.57101059 85.08572006 C-18.96003604 86.65254818 -17.35720951 88.22728412 -15.75662231 89.80471802 C-11.20654669 94.2876906 -6.64849178 98.76228427 -2.06982422 103.21606445 C0.73343068 105.94398824 3.52182579 108.68636613 6.30126572 111.43854141 C7.36192288 112.48310211 8.42810546 113.52208315 9.49985123 114.55526352 C10.99850707 116.00090324 12.47754768 117.46421299 13.95361328 118.93286133 C14.80029572 119.76018768 15.64697815 120.58751404 16.51931763 121.43991089 C18.74799245 124.54101428 18.81246331 126.21541754 18.328125 129.95678711 C16.84692383 132.21435547 16.84692383 132.21435547 14.78515625 134.29663086 C13.66850586 135.42488281 13.66850586 135.42488281 12.52929688 136.57592773 C11.74103516 137.34098633 10.95277344 138.10604492 10.140625 138.89428711 C9.37169922 139.68641602 8.60277344 140.47854492 7.81054688 141.29467773 C7.05966797 142.03782227 6.30878906 142.7809668 5.53515625 143.54663086 C4.50612183 144.56551392 4.50612183 144.56551392 3.45629883 145.60498047 C1.328125 146.95678711 1.328125 146.95678711 -0.86779785 146.94502258 C-5.07183674 145.46340131 -7.56699798 142.6268736 -10.6652832 139.49682617 C-11.34876328 138.82196167 -12.03224335 138.14709717 -12.73643494 137.45178223 C-14.99214614 135.21876901 -17.23280526 132.97132595 -19.47265625 130.72241211 C-21.03441436 129.16588728 -22.59669273 127.6098843 -24.1594696 126.05438232 C-27.43178503 122.79247786 -30.69649635 119.523187 -33.95629883 116.2487793 C-38.13892272 112.04895469 -42.3415659 107.86983397 -46.55033588 103.69623184 C-49.78045083 100.48805112 -52.99882022 97.2682897 -56.21382713 94.04497528 C-57.75901159 92.49896938 -59.3080627 90.95681826 -60.86098671 89.41858673 C-63.02800815 87.26893881 -65.17851401 85.10401948 -67.32543945 82.93432617 C-67.97213593 82.2993219 -68.6188324 81.66431763 -69.28512573 81.0100708 C-73.50163098 76.70185241 -73.50163098 76.70185241 -74.28533936 73.27198792 C-73.50494899 70.32681206 -72.37818722 69.06561734 -70.20288086 66.93603516 C-69.44466537 66.18142502 -68.68644989 65.42681488 -67.90525818 64.64933777 C-66.65858116 63.44607597 -66.65858116 63.44607597 -65.38671875 62.21850586 C-64.53767471 61.37890823 -63.68863068 60.53931061 -62.81385803 59.67427063 C-60.09055317 56.98560131 -57.35075245 54.31451614 -54.609375 51.64428711 C-51.89641935 48.98148654 -49.18701114 46.31515349 -46.47987366 43.6464386 C-44.79441133 41.98711931 -43.1050321 40.33176598 -41.41111755 38.68107605 C-37.1705193 34.52859612 -33.1257536 30.29742648 -29.25953674 25.79429626 C-25.44425025 21.37860514 -21.35266987 17.21583167 -17.27441406 13.04443359 C-16.19797309 11.93601425 -15.12967943 10.81962919 -14.06933594 9.69580078 C-12.51823032 8.05363547 -10.94256742 6.43905884 -9.359375 4.82788086 C-8.89249268 4.32284531 -8.42561035 3.81780975 -7.94458008 3.29747009 C-5.17359741 0.5423814 -3.96646754 -0.04667984 0 0 Z " fill="#FCFCFC" transform="translate(284.671875,285.043212890625)"/>
<path d="M0 0 C0.495 0.99 0.495 0.99 1 2 C-4.2619603 8.20751928 -9.85907004 14.01109784 -15.625 19.75 C-16.45773437 20.58660156 -17.29046875 21.42320312 -18.1484375 22.28515625 C-18.95796875 23.09339844 -19.7675 23.90164063 -20.6015625 24.734375 C-21.32682129 25.45850586 -22.05208008 26.18263672 -22.79931641 26.92871094 C-25.1015035 29.09553536 -27.50683774 31.05777353 -30 33 C-30.66 32.67 -31.32 32.34 -32 32 C-21.44 21.44 -10.88 10.88 0 0 Z " fill="#393939" transform="translate(483,382)"/>
<path d="M0 0 C0.99 0.33 1.98 0.66 3 1 C-0.63 4.63 -4.26 8.26 -8 12 C-8.99 11.67 -9.98 11.34 -11 11 C-7.37 7.37 -3.74 3.74 0 0 Z " fill="#323232" transform="translate(274,335)"/>
</svg>
