<?xml version="1.0" encoding="UTF-8"?>
<svg version="1.1" xmlns="http://www.w3.org/2000/svg" width="1024" height="1024">
<path d="M0 0 C337.92 0 675.84 0 1024 0 C1024 337.92 1024 675.84 1024 1024 C686.08 1024 348.16 1024 0 1024 C0 686.08 0 348.16 0 0 Z " fill="#FCFBFC" transform="translate(0,0)"/>
<path d="M0 0 C1.11290519 -0.00307895 1.11290519 -0.00307895 2.24829331 -0.0062201 C4.73620178 -0.01187774 7.22405467 -0.01043438 9.71196842 -0.00901413 C11.51311957 -0.01159849 13.31427014 -0.01461184 15.11541992 -0.01801753 C20.06679682 -0.02608272 25.01815922 -0.02787684 29.96954191 -0.028615 C35.30924548 -0.03046643 40.64894155 -0.0380143 45.98864079 -0.04475021 C57.66660514 -0.05833145 69.34456606 -0.06435815 81.02253699 -0.06876087 C88.31639507 -0.07152409 95.61025182 -0.07576164 102.904109 -0.08026505 C123.10378371 -0.09245828 143.30345737 -0.10275694 163.50313568 -0.10614014 C164.79596525 -0.1063597 166.08879482 -0.10657927 167.42080105 -0.10680549 C168.71670778 -0.10702377 170.01261451 -0.10724204 171.34779114 -0.10746694 C173.97374594 -0.1079104 176.59970075 -0.10835696 179.22565556 -0.10880661 C180.52821716 -0.10902804 181.83077876 -0.10924947 183.17281193 -0.10947761 C204.26905533 -0.11342384 225.36526415 -0.13087229 246.4614942 -0.15416613 C268.12748571 -0.17789566 289.79345989 -0.19034275 311.45946461 -0.19150805 C323.62127252 -0.192424 335.7830354 -0.198156 347.94483089 -0.21632767 C358.30328097 -0.23175037 368.66167209 -0.23683636 379.02013146 -0.22858956 C384.30194586 -0.22469054 389.58364162 -0.22557608 394.86544132 -0.23964691 C399.70861273 -0.25243078 404.55157691 -0.25114908 409.39474822 -0.2390562 C411.13910615 -0.23710693 412.88347899 -0.24014168 414.62781601 -0.24890056 C452.88264067 -0.42869988 489.11563505 15.72221802 516.21320438 42.50642776 C526.14312522 52.5825304 533.93457327 63.60592478 540.46320438 76.13142776 C541.37392704 77.8542598 541.37392704 77.8542598 542.30304813 79.61189651 C545.86166669 86.61626879 548.49053981 93.78718618 550.71320438 101.31892776 C551.06439335 102.48210526 551.06439335 102.48210526 551.42267704 103.66878128 C557.26129258 124.61036755 556.89613175 145.81668005 556.84071934 167.34438837 C556.83178695 172.10583263 556.84034657 176.86725229 556.84658146 181.62869644 C556.85601872 190.92954439 556.8495147 200.23031417 556.83731852 209.53115626 C556.82362605 220.38138798 556.82534269 231.23160156 556.82745185 242.08183972 C556.83063422 261.45019166 556.81901652 280.81850669 556.79938602 300.18684769 C556.78037723 318.94695026 556.7733015 337.70700961 556.77887821 356.46712112 C556.78494601 376.93955813 556.78474122 397.41197619 556.77339238 417.88441163 C556.77218519 420.07025389 556.77097921 422.25609614 556.76977444 424.4419384 C556.76886913 426.05479745 556.76886913 426.05479745 556.76794553 427.70023951 C556.76407871 435.24966862 556.76445517 442.79909065 556.76636028 450.34852028 C556.76848978 459.55593843 556.76320103 468.76331889 556.74874673 477.97072645 C556.74153997 482.66148042 556.73739371 487.3521797 556.74199009 492.04293823 C556.7461055 496.34777339 556.74079192 500.65249628 556.72836401 504.95731453 C556.72546764 506.5034397 556.72582194 508.04957568 556.73000709 509.5956979 C556.82157478 546.84361526 545.92557491 581.61023737 521.46320438 610.13142776 C520.66656376 611.0685762 519.86992313 612.00572464 519.04914188 612.97127151 C514.52783674 618.13736759 509.81118524 622.82834548 504.46320438 627.13142776 C503.6033997 627.82881058 502.74359501 628.52619339 501.85773563 629.24470901 C474.23905498 650.82529754 441.59720623 659.27678131 407.06646061 659.28532791 C405.29785745 659.28934851 403.5292552 659.29378772 401.76065403 659.29860747 C396.91743521 659.31051238 392.07422633 659.31620722 387.23099577 659.32078862 C382.00023575 659.32676797 376.76948746 659.33837195 371.53873539 659.34907913 C358.91382824 659.37355063 346.28891723 659.38822295 333.66399369 659.4011392 C330.09407207 659.40485509 326.52415083 659.408828 322.95422959 659.41289186 C300.75313343 659.43813332 278.5520366 659.46017157 256.35092926 659.47262001 C251.21363097 659.47554937 246.0763327 659.47851109 240.93903446 659.48152542 C239.66229227 659.48227147 238.38555008 659.48301752 237.07011873 659.48378618 C216.41088306 659.49642627 195.75173371 659.52963447 175.09253835 659.57132725 C153.84899737 659.61384542 132.60550047 659.63732645 111.36191708 659.64254057 C99.44796771 659.64594357 87.53415322 659.65756705 75.62024593 659.69064331 C65.46893069 659.71878111 55.31777803 659.72958331 45.16642683 659.71844785 C39.99667495 659.71329611 34.82726279 659.71591848 29.6575613 659.74091339 C-17.36907424 659.95567093 -57.30886237 651.37388973 -92.53679562 618.13142776 C-93.75302608 617.02927933 -93.75302608 617.02927933 -94.99382687 615.90486526 C-119.52501 592.80305816 -133.25137178 557.35802329 -135.53679562 524.13142776 C-135.68197607 518.81247665 -135.68067156 513.49530494 -135.67723751 508.17490005 C-135.67982507 506.5628882 -135.68283931 504.95087699 -135.68624091 503.33886665 C-135.69426832 498.92872163 -135.69609809 494.51859293 -135.69683838 490.10844147 C-135.6986964 485.3440604 -135.70624748 480.57968765 -135.71297359 475.81531143 C-135.72652732 465.40587009 -135.73257707 454.99643261 -135.73698425 444.58698392 C-135.73975179 438.08036865 -135.74399008 431.57375485 -135.74848843 425.06714058 C-135.76067743 407.03248977 -135.77097734 388.99784014 -135.77436352 370.96318531 C-135.77458308 369.81001259 -135.77480265 368.65683987 -135.77502887 367.46872252 C-135.77524715 366.31287763 -135.77546542 365.15703275 -135.77569032 363.96616226 C-135.77613377 361.62419673 -135.77658034 359.28223119 -135.77702999 356.94026566 C-135.77725142 355.77858358 -135.77747285 354.6169015 -135.77770099 353.42001694 C-135.78164647 334.60941199 -135.79909451 315.79884584 -135.82238951 296.98825587 C-135.84614363 277.64994378 -135.85856722 258.31165114 -135.85973144 238.97332424 C-135.86064594 228.12601064 -135.86634135 217.2787476 -135.88455105 206.43144798 C-135.90000694 197.19236802 -135.90504028 187.95335425 -135.89681295 178.7142638 C-135.89292575 174.00709621 -135.89374078 169.30006169 -135.90787029 164.59291077 C-136.00998802 128.4787088 -136.00998802 128.4787088 -132.53679562 113.13142776 C-132.22277863 111.67882728 -131.90903784 110.22616705 -131.59556103 108.7734499 C-126.08039867 84.13671614 -113.95150138 62.29806383 -96.53679562 44.13142776 C-95.78011593 43.31158401 -95.02343624 42.49174026 -94.24382687 41.64705276 C-76.50955481 23.0159415 -51.38572484 10.14656222 -26.53679562 4.13142776 C-25.36761593 3.84525589 -24.19843624 3.55908401 -22.99382687 3.26424026 C-15.27171643 1.43187508 -7.96183695 -0.02063747 0 0 Z " fill="#292929" transform="translate(301.5367956161499,166.86857223510742)"/>
<path d="M0 0 C0.87100342 -0.00945648 1.74200684 -0.01891296 2.6394043 -0.02865601 C3.57695557 -0.02258331 4.51450684 -0.01651062 5.48046875 -0.01025391 C6.44573486 -0.01312408 7.41100098 -0.01599426 8.40551758 -0.01895142 C10.44645779 -0.02099302 12.48741752 -0.01545648 14.52832031 -0.00292969 C17.65604315 0.01312239 20.78247371 -0.00277536 23.91015625 -0.02197266 C25.89192994 -0.01999024 27.87370283 -0.0161466 29.85546875 -0.01025391 C30.79302002 -0.0163266 31.73057129 -0.02239929 32.6965332 -0.02865601 C33.56753662 -0.01919952 34.43854004 -0.00974304 35.3359375 0 C36.10188232 0.00238678 36.86782715 0.00477356 37.65698242 0.00723267 C40.23924674 0.49640356 41.14751214 1.26327413 42.66796875 3.38818359 C42.41224501 9.18071369 40.93817663 14.47074068 39.24609375 19.98974609 C38.99449997 20.82920273 38.74290619 21.66865936 38.48368835 22.53355408 C37.6344289 25.36193482 36.77610141 28.18748347 35.91796875 31.01318359 C35.29697936 33.07541319 34.67663917 35.13783837 34.05688477 37.20043945 C32.683854 41.76675592 31.30718586 46.33195601 29.92822266 50.89648438 C27.54316891 58.79551388 25.17288974 66.69893375 22.8046875 74.60302734 C21.9498239 77.45582118 21.09491422 80.30860121 20.23999023 83.16137695 C19.91695404 84.23935028 19.91695404 84.23935028 19.58739185 85.33910084 C17.12220453 93.5646192 14.6528636 101.78889007 12.18359375 110.01318359 C8.52476812 122.19991218 4.86858491 134.38742968 1.21484375 146.57568359 C-8.21268693 178.02288157 -17.65009752 209.4669766 -27.15843201 240.88986206 C-29.31394933 248.01524923 -31.46394666 255.14228171 -33.61083126 262.27027321 C-35.45714422 268.39988637 -37.30609264 274.52870102 -39.15670109 280.65701866 C-40.28983671 284.40983065 -41.42171709 288.16301087 -42.55056763 291.91711426 C-43.60717195 295.43080771 -44.66718607 298.94345443 -45.72977257 302.45534325 C-46.31048745 304.37788047 -46.88756506 306.30151517 -47.46455383 308.22517395 C-47.81382431 309.37732895 -48.16309479 310.52948395 -48.52294922 311.71655273 C-48.82554657 312.72029434 -49.12814392 313.72403595 -49.43991089 314.75819397 C-51.5575109 321.00092342 -51.5575109 321.00092342 -54.33203125 322.38818359 C-55.74082625 322.48746041 -57.15413485 322.52646669 -58.56640625 322.53344727 C-59.87786621 322.54301704 -59.87786621 322.54301704 -61.21582031 322.55278015 C-62.16166992 322.55389297 -63.10751953 322.5550058 -64.08203125 322.55615234 C-65.05108398 322.55948074 -66.02013672 322.56280914 -67.01855469 322.5662384 C-69.06965662 322.57130629 -71.12076681 322.57364677 -73.171875 322.57348633 C-76.31914754 322.57567464 -79.4660707 322.59383684 -82.61328125 322.61279297 C-84.60286338 322.61572648 -86.59244718 322.61771156 -88.58203125 322.61865234 C-89.52788086 322.62583786 -90.47373047 322.63302338 -91.44824219 322.64042664 C-92.32254883 322.63735001 -93.19685547 322.63427338 -94.09765625 322.63110352 C-95.25442871 322.63324104 -95.25442871 322.63324104 -96.43457031 322.63542175 C-98.33203125 322.38818359 -98.33203125 322.38818359 -100.33203125 320.38818359 C-100.83439817 314.73309502 -99.63166403 310.16195301 -97.9375 304.85693359 C-97.67884155 304.01857468 -97.42018311 303.18021576 -97.15368652 302.31645203 C-96.58569084 300.47928242 -96.013222 298.64349127 -95.43685913 296.80892944 C-94.16220846 292.750478 -92.91001851 288.68518454 -91.65571594 284.6204071 C-90.97187316 282.40546396 -90.28685351 280.19088387 -89.60075378 277.97663879 C-85.53992014 264.86506669 -81.58060283 251.72295262 -77.62316132 238.57991028 C-77.01565529 236.56281427 -76.40771439 234.54584985 -75.79962158 232.52893066 C-68.36741608 207.87772906 -60.99781231 183.20806041 -53.65148926 158.53112793 C-50.90160991 149.29577203 -48.14530101 140.06234876 -45.38671875 130.82958984 C-44.9623064 129.40900807 -44.53789845 127.98842498 -44.11349487 126.56784058 C-43.90266581 125.86214369 -43.69183674 125.1564468 -43.47461891 124.42936516 C-35.48830528 97.69699581 -27.51965903 70.95972119 -19.61889648 44.2019043 C-18.1576715 39.25412615 -16.68711044 34.30918283 -15.21380615 29.36499023 C-14.27795924 26.20564049 -13.35695654 23.04214788 -12.43603516 19.87841797 C-11.81449755 17.77218897 -11.19260198 15.66606557 -10.5703125 13.56005859 C-10.28923141 12.5814386 -10.00815033 11.6028186 -9.71855164 10.59454346 C-9.44960587 9.692099 -9.1806601 8.78965454 -8.90356445 7.85986328 C-8.6717598 7.0663446 -8.43995514 6.27282593 -8.2011261 5.45526123 C-6.43685426 1.25907152 -4.49567601 0.01400909 0 0 Z " fill="#FDFDFD" transform="translate(544.33203125,318.61181640625)"/>
<path d="M0 0 C2.47370625 1.84450054 2.47370625 1.84450054 5.11897278 4.48405457 C5.60918763 4.96646947 6.09940249 5.44888437 6.60447234 5.9459179 C8.24556841 7.56705513 9.86819468 9.20550066 11.49145508 10.84448242 C12.66355707 12.00981006 13.83672026 13.17407115 15.01086426 14.33734131 C18.19787962 17.50153546 21.36884354 20.68137558 24.53653169 23.86490417 C27.85092317 27.19193985 31.17747981 30.50677528 34.50212097 33.82356262 C40.08360745 39.39594826 45.6544589 44.97880347 51.21948242 50.56762695 C57.65686116 57.03221757 64.11205524 63.47859781 70.57680017 69.91581267 C76.12323165 75.43956664 81.65987496 80.97298974 87.18843001 86.51463586 C90.49197543 89.82598317 93.79882205 93.13384349 97.11451149 96.4330349 C100.23095824 99.53505612 103.33495303 102.64901915 106.42969513 105.77268982 C107.56863549 106.91825113 108.71187018 108.05956091 109.85961723 109.1962986 C111.42356471 110.74661963 112.97135074 112.31145866 114.51594543 113.88102722 C115.38699826 114.75396518 116.25805109 115.62690313 117.15549946 116.52629375 C119 119 119 119 119.5549202 121.50516605 C118.77608961 125.0066659 117.13066134 126.50156764 114.60533142 129.03631592 C114.13249476 129.5176581 113.65965809 129.99900029 113.17249304 130.4949286 C111.58367092 132.10605035 109.97754072 133.6987044 108.37084961 135.29199219 C107.22847777 136.4427756 106.08716579 137.59461197 104.94683838 138.74742126 C101.84460326 141.87675563 98.72663519 144.9899575 95.60481715 148.09974194 C93.0005979 150.69683822 90.40422001 153.3017016 87.80783659 155.90662789 C81.68203054 162.05240255 75.54353599 168.18529399 69.39672852 174.31005859 C63.05556288 180.62887002 56.73461664 186.96739068 50.42356676 193.31626964 C45.00512602 198.76594489 39.57510438 204.20388131 34.13547522 209.63240743 C30.88647476 212.87491898 27.6418724 216.12153433 24.40803337 219.37917328 C21.36560751 222.44284496 18.30893612 225.49155162 15.24072266 228.52939034 C14.11770466 229.64607834 12.99975851 230.76789399 11.88736153 231.89516258 C10.36624326 233.43495626 8.82776432 234.95503425 7.28355408 236.47161865 C6.4272084 237.327001 5.57086271 238.18238335 4.68856716 239.06368637 C1.40609717 241.42773049 -0.99487576 241.80498473 -5 242 C-6.91149902 241.09091187 -6.91149902 241.09091187 -8.38085938 239.62255859 C-8.9441394 239.07804047 -9.50741943 238.53352234 -10.08776855 237.97250366 C-10.66724243 237.37056183 -11.24671631 236.76862 -11.84375 236.1484375 C-12.4577063 235.53739166 -13.0716626 234.92634583 -13.70422363 234.29678345 C-14.99449036 233.00320275 -16.27489475 231.69971945 -17.54589844 230.38720703 C-19.49714789 228.37793692 -21.48315034 226.40875753 -23.4765625 224.44140625 C-24.72619874 223.17929767 -25.97367269 221.91504371 -27.21875 220.6484375 C-28.11225159 219.76374283 -28.11225159 219.76374283 -29.02380371 218.86117554 C-30.65429688 217.15380859 -30.65429688 217.15380859 -33 214 C-32.7674156 209.90851517 -31.43187352 207.93442389 -28.57688904 205.09587097 C-27.84348297 204.35696625 -27.1100769 203.61806152 -26.35444641 202.85676575 C-25.54452744 202.06122787 -24.73460846 201.26569 -23.90014648 200.44604492 C-23.05143982 199.59675415 -22.20273315 198.74746338 -21.32830811 197.87243652 C-19.00292936 195.54936547 -16.66892199 193.23540594 -14.33077502 190.92519927 C-11.8879329 188.5073779 -9.4564286 186.07820903 -7.0236969 183.65022278 C-2.41700308 179.05595674 2.19979118 174.47198147 6.82030481 169.89161903 C12.08083358 164.67581406 17.32999625 159.44863388 22.5782367 154.22046888 C33.37289707 143.46760834 44.18173673 132.72911692 55 122 C53.59960297 118.8270421 51.95535577 116.7193675 49.48786926 114.29446411 C48.76005753 113.57401917 48.03224579 112.85357422 47.28237915 112.11129761 C46.08456314 110.9407634 46.08456314 110.9407634 44.86254883 109.74658203 C44.02184341 108.91682861 43.181138 108.0870752 42.31495667 107.23217773 C40.48903354 105.43060885 38.66100148 103.63117551 36.83112526 101.83362198 C33.93782109 98.9912804 31.05486988 96.1385938 28.17399597 93.28366089 C19.98187888 85.16764434 11.78332484 77.05830717 3.55786133 68.97607422 C-0.98725153 64.50993738 -5.5198145 60.03146598 -10.03859502 55.53868377 C-12.42974063 53.16239058 -14.82703012 50.79310282 -17.24001122 48.43896866 C-19.92644777 45.81251255 -22.5906511 43.16531408 -25.25073242 40.51220703 C-26.45765747 39.34774551 -26.45765747 39.34774551 -27.68896484 38.15975952 C-32.96695538 32.83237291 -32.96695538 32.83237291 -33.13287354 28.65299988 C-31.59790411 25.05835885 -29.28146879 22.6404285 -26.50390625 19.98046875 C-25.95516342 19.43642899 -25.40642059 18.89238922 -24.84104919 18.3318634 C-23.09293526 16.6050204 -21.32793354 14.89661296 -19.5625 13.1875 C-18.37846864 12.01998323 -17.19551336 10.85137409 -16.01367188 9.68164062 C-5.47094628 -0.69581824 -5.47094628 -0.69581824 0 0 Z " fill="#FEFEFE" transform="translate(622,360)"/>
<path d="M0 0 C2.33974606 1.84280553 4.3224536 3.62125875 6.39453125 5.73046875 C6.98674973 6.31790359 7.5789682 6.90533844 8.18913269 7.51057434 C9.43652579 8.75456852 10.67764092 10.00488527 11.9128418 11.26098633 C13.80589121 13.18079778 15.72410655 15.07249912 17.64648438 16.96289062 C18.85577308 18.17548342 20.0635098 19.38962636 21.26953125 20.60546875 C22.1318914 21.45264717 22.1318914 21.45264717 23.01167297 22.31694031 C26.90076241 26.32291118 26.90076241 26.32291118 27.35832882 29.44484425 C26.90753381 32.65935395 25.95652948 33.65890895 23.66590881 35.92863464 C22.92690842 36.6730632 22.18790802 37.41749176 21.42651367 38.18447876 C20.60521973 38.98622528 19.78392578 39.7879718 18.93774414 40.61401367 C18.08103622 41.46984543 17.22432831 42.32567719 16.34165955 43.20744324 C13.99089801 45.55109119 11.62962044 47.88312507 9.26317143 50.21086669 C6.7907002 52.64835378 4.33277373 55.10041488 1.87339783 57.55110168 C-2.78704578 62.19083995 -7.45966029 66.8181095 -12.13712651 71.44067985 C-19.00630287 78.23025167 -25.85804148 85.03738516 -32.70860386 91.84573078 C-33.71829706 92.84916586 -34.72799116 93.85260005 -35.73768616 94.85603333 C-36.2304835 95.34583296 -36.72328085 95.83563259 -37.23101145 96.34027463 C-40.16573409 99.25628948 -43.10431984 102.16834146 -46.0463351 105.07699811 C-48.30197229 107.30774047 -50.55479926 109.54131969 -52.80834961 111.77416992 C-53.62761932 112.58198914 -54.44688904 113.38980835 -55.29098511 114.22210693 C-56.03280533 114.95807602 -56.77462555 115.6940451 -57.53892517 116.45231628 C-58.18694564 117.09292087 -58.83496611 117.73352545 -59.50262356 118.39354229 C-61.09041758 119.94524127 -61.09041758 119.94524127 -62 122 C-61.4164764 122.25931683 -60.8329528 122.51863365 -60.23174667 122.78580856 C-57.83233616 124.09121824 -56.23018885 125.50743162 -54.29205322 127.42706299 C-53.57135147 128.13634445 -52.85064972 128.84562592 -52.10810852 129.57640076 C-51.32767685 130.35459671 -50.54724518 131.13279266 -49.74316406 131.93457031 C-48.91352646 132.75427811 -48.08388885 133.5739859 -47.22911072 134.41853333 C-44.48564653 137.13277852 -41.75003896 139.8547642 -39.015625 142.578125 C-37.59572521 143.98942915 -36.17582489 145.40073278 -34.75584483 146.81195617 C-30.80171886 150.74247954 -26.85186421 154.67724612 -22.90607381 158.61613679 C-17.80482681 163.7084138 -12.69075929 168.78733507 -7.56513619 173.85507321 C-3.60119553 177.77579427 0.35115337 181.70795636 4.29488015 185.64900851 C6.64968383 188.001716 9.01048256 190.34780936 11.3806076 192.68509674 C14.02163347 195.29211714 16.64319181 197.91729106 19.26074219 200.54785156 C20.04927078 201.31795059 20.83779938 202.08804962 21.65022278 202.88148499 C26.83884687 208.15157321 26.83884687 208.15157321 27.63265991 212.33078003 C26.68091134 216.34624908 24.16511311 218.69252231 21.3046875 221.4921875 C20.71962433 222.08299103 20.13456116 222.67379456 19.5317688 223.28250122 C18.29319603 224.52514926 17.04704421 225.76028295 15.79394531 226.98828125 C13.88115548 228.8689479 12.00247412 230.77946234 10.125 232.6953125 C8.91598157 233.90036595 7.70510314 235.10355677 6.4921875 236.3046875 C5.93256317 236.87645721 5.37293884 237.44822693 4.7963562 238.037323 C2.30194799 240.44438437 0.60592825 241.90937076 -2.86960697 242.42920971 C-6.97967701 241.86567601 -8.3237815 240.43055103 -11.24595642 237.51594543 C-11.73773127 237.03353053 -12.22950611 236.55111563 -12.73618323 236.0540821 C-14.37895784 234.43522442 -15.99946755 232.79578001 -17.62084961 231.15551758 C-18.79451629 229.98998157 -19.96945546 228.82572574 -21.14556885 227.66265869 C-24.33482248 224.50077055 -27.50479007 221.32018077 -30.67085719 218.13509583 C-33.9842143 214.80655884 -37.3121731 211.49267389 -40.63783264 208.17643738 C-46.21935136 202.60583617 -51.78809546 197.02269873 -57.34985352 191.43237305 C-63.78483735 184.96471948 -70.24117399 178.51898732 -76.70899767 172.08418733 C-82.25812687 166.56226214 -87.79550746 161.02875976 -93.32318884 155.48536414 C-96.62622315 152.17296458 -99.93320372 148.86477882 -103.25080681 145.5669651 C-106.36791584 142.46715437 -109.47004506 139.35309914 -112.56109619 136.22731018 C-113.69957996 135.08087521 -114.8432333 133.93954818 -115.99228096 132.8037014 C-117.55676289 131.25554833 -119.10168817 129.69021427 -120.64292908 128.11897278 C-121.51360488 127.24603482 -122.38428068 126.37309687 -123.2813406 125.47370625 C-125 123 -125 123 -125.05660248 120.49483395 C-123.69542396 117.28083961 -121.92557095 115.43094692 -119.45143127 112.96368408 C-118.7356029 112.24167081 -118.7356029 112.24167081 -118.00531334 111.5050714 C-116.4055622 109.896398 -114.79193659 108.30241769 -113.17797852 106.70800781 C-112.02752899 105.55704947 -110.87795287 104.40521754 -109.72918701 103.25257874 C-106.60804927 100.12601922 -103.47463886 97.01202862 -100.33876538 93.90025806 C-97.06167723 90.64444922 -93.79551877 87.37771194 -90.52806091 84.11224365 C-85.0408553 78.63148655 -79.54630329 73.15818733 -74.04663086 67.68994141 C-66.98119777 60.66482821 -59.92727513 53.62827717 -52.8771677 46.58778763 C-46.82216826 40.54108165 -40.76270397 34.49885599 -34.70210528 28.45776272 C-32.75069938 26.51242811 -30.79975883 24.56662756 -28.84881783 22.62082672 C-25.78739976 19.56817727 -22.72323672 16.51830894 -19.65689087 13.47060966 C-18.52969522 12.34954694 -17.40334121 11.22763727 -16.2778759 10.10483742 C-14.74607762 8.57700785 -13.21125203 7.05228791 -11.67555237 5.52838135 C-10.81589654 4.672999 -9.95624071 3.81761665 -9.07053471 2.93631363 C-6.0327275 0.09543031 -4.13367486 -0.62668911 0 0 Z " fill="#FEFEFE" transform="translate(407,360)"/>
<path d="M0 0 C0.495 1.485 0.495 1.485 1 3 C-1.90516578 7.91082417 -6.76660065 11.60499449 -11.0625 15.25 C-12.89349314 16.90380025 -14.43607986 18.59609722 -16 20.5 C-18.69957629 23.78485028 -21.73077515 26.41838497 -24.97265625 29.15625 C-27.78093265 31.71021235 -30.15806926 34.55884302 -32.5546875 37.49609375 C-33.03164063 37.99238281 -33.50859375 38.48867188 -34 39 C-34.66 39 -35.32 39 -36 39 C-36.20625 39.53625 -36.4125 40.0725 -36.625 40.625 C-39.04674888 44.80802079 -42.39761081 48.06201608 -46.5625 50.5 C-48.90054907 51.93879943 -50.0072914 53.07986992 -51.6875 55.1875 C-52.450625 56.115625 -53.21375 57.04375 -54 58 C-54.66 58 -55.32 58 -56 58 C-56 58.66 -56 59.32 -56 60 C-56.66 60 -57.32 60 -58 60 C-56.3993244 56.02473776 -53.62856444 53.35979696 -50.63232422 50.40527344 C-50.08583221 49.85848938 -49.53934021 49.31170532 -48.97628784 48.74835205 C-47.17378907 46.94724351 -45.36431604 45.15331753 -43.5546875 43.359375 C-42.30157633 42.10999505 -41.04890681 40.86017199 -39.79666138 39.60992432 C-36.50324045 36.32413128 -33.20385709 33.0443893 -29.90319824 29.76586914 C-26.53471006 26.41785747 -23.1718924 23.06416093 -19.80859375 19.7109375 C-13.21126824 13.13504704 -6.60763017 6.56553484 0 0 Z " fill="#333333" transform="translate(403,422)"/>
<path d="M0 0 C1.79341438 4.16673521 0.01173384 7.74663341 -1.4375 11.75 C-1.68048828 12.44738281 -1.92347656 13.14476562 -2.17382812 13.86328125 C-2.77310248 15.57885098 -3.38529885 17.28989715 -4 19 C-5.5726619 14.13598142 -4.35223262 9.81052869 -3 5 C-1.375 1.875 -1.375 1.875 0 0 Z " fill="#1C1B1C" transform="translate(525,358)"/>
<path d="M0 0 C0 0.99 0 1.98 0 3 C-1.96311376 4.77615054 -3.91184764 6.38685527 -6 8 C-7.1287418 8.93299153 -8.25394805 9.87028253 -9.375 10.8125 C-10.24125 11.534375 -11.1075 12.25625 -12 13 C-12.66 12.67 -13.32 12.34 -14 12 C-5.87361545 3.51065038 -5.87361545 3.51065038 -1 1 C-0.67 0.67 -0.34 0.34 0 0 Z " fill="#313132" transform="translate(418,409)"/>
</svg>
